<svg preserveAspectRatio="none" overflow="visible" style="display: block;" width="22" height="22.0004" viewBox="0 0 22 22.0004" fill="none" xmlns="http://www.w3.org/2000/svg">
<g id="Group 1321322586">
<path id="Vector" d="M10.1846 6.50389H10.1687C9.81793 6.49532 9.53734 6.23229 9.5469 5.91779C9.58198 4.68841 8.96339 3.65629 7.70389 2.84433C6.72499 2.21248 5.73652 1.96374 5.72695 1.96089C5.38577 1.87797 5.18808 1.56348 5.28055 1.25756C5.37302 0.951646 5.72376 0.774386 6.06494 0.857298C6.11277 0.868734 7.28618 1.16321 8.45002 1.91514C10.0475 2.94725 10.867 4.3396 10.8223 5.94638C10.8128 6.25802 10.529 6.50389 10.1846 6.50389Z" fill="black"/>
<path id="Vector_2" d="M6.33337 5.6522C6.92007 5.6522 7.49721 5.73797 8.05203 5.90951C8.38683 6.02959 8.75033 6.1897 9.12978 6.3784C9.83127 6.73006 10.8931 6.853 11.5882 6.853C11.9995 6.853 12.4109 6.79581 12.8158 6.68145C13.1442 6.58996 13.4663 6.47846 13.7724 6.35552L14.56 6.03817C14.7162 5.97527 14.8693 5.93524 15.0128 5.91523L15.0319 5.91237L15.051 5.90951C15.5357 5.83232 16.0204 5.79229 16.4827 5.79229C16.5592 5.79229 16.6358 5.79229 16.7123 5.79515C17.2001 5.80945 17.6593 5.88664 18.0802 6.02673C18.4628 6.15539 18.8104 6.36124 19.142 6.66144C19.4864 6.97307 19.802 7.41337 20.0731 7.96516C20.5705 9.00299 20.7427 9.68058 20.7267 10.5612C20.7108 11.579 20.529 12.6025 20.1911 13.6089C19.8435 14.641 19.3588 15.6674 18.7562 16.6623C18.3321 17.36 17.8761 17.9403 17.3946 18.5522C17.1874 18.8152 16.9738 19.084 16.7569 19.3756C16.2818 19.9903 15.9375 20.3048 15.7334 20.4592C15.4368 20.685 15.2232 20.7679 15.0989 20.7965C14.9458 20.8337 14.7959 20.8508 14.6461 20.8508C14.5887 20.8508 14.5281 20.848 14.4675 20.8423C14.1391 20.8108 13.7788 20.7622 13.4025 20.6965C12.9561 20.6193 12.4682 20.5564 11.9581 20.5106C11.7572 20.4906 11.518 20.482 11.247 20.482C10.6986 20.482 10.131 20.5192 9.69416 20.5849L9.68459 20.5878L9.67503 20.5907C8.77903 20.7393 8.04884 20.828 7.50996 20.8508C7.46532 20.8537 7.42387 20.8537 7.38242 20.8537C7.06994 20.8537 6.80847 20.8022 6.58527 20.6936C6.29829 20.5564 5.98262 20.2847 5.67014 19.9074C5.262 19.4156 4.74544 18.7123 4.13004 17.8088L4.11729 17.7888C3.33608 16.6423 2.71749 15.7389 2.23919 14.5953C1.75453 13.4402 1.44842 12.3166 1.33044 11.2559C1.22203 10.281 1.28899 9.62054 1.59191 8.72852C1.85975 7.94229 2.34442 7.29329 3.07461 6.74721L3.0778 6.74435L3.08099 6.74149C3.85901 6.15253 4.65616 5.81231 5.52027 5.70366C5.7913 5.67221 6.06552 5.6522 6.33337 5.6522ZM6.33337 4.50859C6.00494 4.50859 5.67014 4.53146 5.33215 4.57434C4.23526 4.71444 3.20853 5.14901 2.24876 5.87235C1.33044 6.56137 0.702286 7.40193 0.364293 8.39973C0.026301 9.39754 -0.0757343 10.2124 0.0549986 11.376C0.185732 12.5396 0.514158 13.749 1.04028 15.0012C1.5664 16.2535 2.23282 17.2284 3.03954 18.4092C3.67726 19.3441 4.21294 20.0732 4.64341 20.5935C5.07387 21.1139 5.52027 21.4855 5.97943 21.7057C6.39076 21.903 6.8563 22.0002 7.37923 22.0002C7.443 22.0002 7.50678 22.0002 7.57055 21.9973C8.17001 21.9716 8.95121 21.8772 9.9078 21.72C10.2968 21.6599 10.807 21.6314 11.247 21.6314C11.467 21.6314 11.6679 21.6399 11.8273 21.6542C12.3056 21.6971 12.752 21.7543 13.1634 21.8258C13.5747 21.8972 13.9669 21.9487 14.3304 21.9859C14.4356 21.9973 14.5408 22.0002 14.6429 22.0002C14.9043 22.0002 15.1658 21.9687 15.4273 21.9058C15.794 21.8172 16.167 21.6285 16.5529 21.3369C16.9387 21.0453 17.3564 20.6078 17.806 20.0274C18.5362 19.0582 19.2281 18.2834 19.8754 17.2141C20.5227 16.1449 21.0329 15.0584 21.4091 13.9463C21.7854 12.8341 21.9799 11.7134 21.999 10.584C22.0181 9.45472 21.763 8.60844 21.2401 7.51629C20.9021 6.82726 20.5035 6.27547 20.0444 5.86091C19.5852 5.44635 19.0782 5.14615 18.5234 4.96031C17.9686 4.77448 17.3787 4.67441 16.7505 4.65726C16.6613 4.6544 16.572 4.6544 16.4795 4.6544C15.9375 4.6544 15.3858 4.70014 14.8214 4.79163C14.56 4.82594 14.2953 4.89741 14.0339 5.0032L13.2463 5.32055C12.9848 5.42634 12.7106 5.51783 12.43 5.59788C12.1494 5.67793 11.8656 5.71796 11.585 5.71796C11.0206 5.71796 10.1916 5.60646 9.74837 5.38631C9.30834 5.16616 8.89063 4.98604 8.49524 4.84309C7.79694 4.62009 7.07631 4.50859 6.33337 4.50859Z" fill="black"/>
<path id="Vector_3" d="M11.2152 6.66125C10.8645 6.66125 10.5073 6.63552 10.147 6.58405C9.876 6.54403 9.65917 6.35247 9.61772 6.10945C9.30205 4.32827 9.86962 2.63858 11.1706 1.46924C12.4747 0.299892 14.3592 -0.206158 16.3457 0.0768869C16.6167 0.116913 16.8335 0.308469 16.875 0.551487C17.1907 2.33267 16.6231 4.02236 15.3221 5.1917C14.2571 6.14662 12.7999 6.66125 11.2152 6.66125ZM10.8198 5.50334C12.2164 5.59483 13.511 5.19742 14.4198 4.37974C15.3285 3.56491 15.7717 2.407 15.6729 1.15188C14.2763 1.0604 12.9817 1.4578 12.0729 2.27549C11.1642 3.09317 10.721 4.25108 10.8198 5.50334Z" fill="black"/>
</g>
</svg>
